<svg xmlns="http://www.w3.org/2000/svg" xmlns:xlink="http://www.w3.org/1999/xlink" version="1.1" x="0px" y="0px" viewBox="0 0 99.21 124.01249999999999" enable-background="new 0 0 99.21 99.21" xml:space="preserve"><g><polygon points="66.401,43.151 66.076,42.491 64.469,39.23 62.862,42.491 62.537,43.151 61.809,43.257 58.209,43.781    60.815,46.327 61.342,46.841 61.217,47.565 60.604,51.155 63.817,49.463 64.469,49.119 65.121,49.463 68.335,51.155 67.721,47.565    67.597,46.841 68.123,46.327 70.729,43.781 67.13,43.257  "/><path d="M76.266,19.502H22.944c-4.677,0-8.504,3.827-8.504,8.504v34.139c0,4.677,3.827,8.504,8.504,8.504h1.962l7.276,8.397   c1.077,1.127,2.071,0.779,2.211-0.773l0.024-7.603c0-0.008-0.001-0.014,0-0.021h41.848c4.676,0,8.504-3.827,8.504-8.504V28.006   C84.77,23.329,80.941,19.502,76.266,19.502z M41.479,57.369l-8.192-4.307l-8.192,4.307l1.564-9.125L20.03,41.78l9.16-1.331   l4.096-8.3l4.097,8.3l9.159,1.331l-6.628,6.464L41.479,57.369z M71.086,48.244l1.562,9.125l-8.178-4.307l-8.179,4.307l1.562-9.125   l-6.616-6.464l9.144-1.331l4.09-8.3l4.089,8.3l9.144,1.331L71.086,48.244z"/></g><text x="0" y="114.21" fill="#000000" font-size="5px" font-weight="bold" font-family="'Helvetica Neue', Helvetica, Arial-Unicode, Arial, Sans-serif">Created by Evgeniy Kozachenko</text><text x="0" y="119.21" fill="#000000" font-size="5px" font-weight="bold" font-family="'Helvetica Neue', Helvetica, Arial-Unicode, Arial, Sans-serif">from the Noun Project</text></svg>