<svg xmlns="http://www.w3.org/2000/svg" xmlns:xlink="http://www.w3.org/1999/xlink" version="1.1" x="0px" y="0px" viewBox="0 0 100 125" enable-background="new 0 0 100 100" xml:space="preserve"><path fill="#000000" d="M75.966,32.988L93.138,18.58l-4.705-5.606L64.59,32.98H36.574v-1.51c0-0.626-0.509-1.134-1.135-1.134h-8.604  c-0.626,0-1.134,0.507-1.134,1.134v1.51h-1.513c-2.554,0-4.633,2.079-4.633,4.633V65.03c0,1.649,0.869,3.097,2.171,3.918  L6.862,81.42l4.704,5.606l20.692-17.362h43.552c2.554,0,4.633-2.078,4.633-4.634V37.613C80.443,35.112,78.448,33.072,75.966,32.988z   M36.305,51.321c0-7.55,6.143-13.694,13.694-13.694c2.496,0,4.836,0.674,6.854,1.846l-2.596,2.177  c-1.304-0.576-2.743-0.898-4.259-0.898c-5.828,0-10.57,4.742-10.57,10.57c0,0.868,0.107,1.71,0.305,2.517l-2.6,2.181  C36.598,54.553,36.305,52.972,36.305,51.321z M49.999,65.018c-3.248,0-6.234-1.139-8.585-3.036l2.452-2.058  c1.73,1.238,3.848,1.969,6.133,1.969c5.829,0,10.571-4.742,10.571-10.571c0-1.627-0.37-3.17-1.031-4.549l2.452-2.057  c1.084,1.96,1.704,4.212,1.704,6.606C63.695,58.873,57.551,65.018,49.999,65.018z M75.433,40.798c0,0.627-0.509,1.135-1.135,1.135  h-7.306c-0.427,0-0.794-0.238-0.988-0.586l4.383-3.677h3.911c0.626,0,1.135,0.509,1.135,1.135V40.798z"/><text x="0" y="115" fill="#000000" font-size="5px" font-weight="bold" font-family="'Helvetica Neue', Helvetica, Arial-Unicode, Arial, Sans-serif">Created by Nathan Morel</text><text x="0" y="120" fill="#000000" font-size="5px" font-weight="bold" font-family="'Helvetica Neue', Helvetica, Arial-Unicode, Arial, Sans-serif">from the Noun Project</text></svg>